<svg width="111" height="19" viewBox="0 0 111 19" fill="none" xmlns="http://www.w3.org/2000/svg">
<g clip-path="url(#clip0_318_14649)">
<path d="M104.933 5.63184C102.066 5.63184 99.7412 7.61172 99.7412 10.0535C99.7412 12.4953 102.066 14.4752 104.933 14.4752C107.8 14.4752 110.124 12.4953 110.124 10.0535C110.124 7.61172 107.8 5.63184 104.933 5.63184ZM104.933 13.7251C102.552 13.7251 100.622 12.0808 100.622 10.0535C100.622 8.02625 102.552 6.38194 104.933 6.38194C107.313 6.38194 109.243 8.02625 109.243 10.0535C109.243 12.0808 107.313 13.7251 104.933 13.7251ZM104.998 8.46743C105.612 8.46743 106.029 8.80103 106.075 9.29058C106.079 9.33203 106.119 9.36361 106.168 9.36361H106.825C106.855 9.36361 106.88 9.34289 106.88 9.31722C106.88 8.46151 106.087 7.86241 104.994 7.86241C103.721 7.86241 102.986 8.59475 102.986 9.80479V10.321C102.986 11.5221 103.721 12.2446 104.994 12.2446C106.083 12.2446 106.88 11.6643 106.88 10.849C106.88 10.8234 106.855 10.8026 106.825 10.8026H106.167C106.118 10.8026 106.079 10.8342 106.074 10.8747C106.025 11.3297 105.609 11.6426 104.996 11.6426C104.24 11.6426 103.813 11.1698 103.813 10.3239V9.80479C103.814 8.94612 104.242 8.46743 104.998 8.46743Z" fill="white"/>
</g>
<path d="M4.214 5.004C5.04467 5.004 5.74 5.08333 6.3 5.242C6.86933 5.40067 7.294 5.662 7.574 6.026C7.86333 6.39 8.008 6.87533 8.008 7.482C8.008 7.874 7.93333 8.224 7.784 8.532C7.644 8.83067 7.42933 9.08267 7.14 9.288C6.86 9.484 6.51467 9.61933 6.104 9.694V9.764C6.524 9.82933 6.902 9.95067 7.238 10.128C7.58333 10.3053 7.854 10.5573 8.05 10.884C8.246 11.2107 8.344 11.6353 8.344 12.158C8.344 12.7647 8.204 13.2827 7.924 13.712C7.644 14.132 7.24267 14.454 6.72 14.678C6.20667 14.8927 5.59067 15 4.872 15H1.358V5.004H4.214ZM4.466 9.26C5.32467 9.26 5.91267 9.12467 6.23 8.854C6.54733 8.574 6.706 8.16333 6.706 7.622C6.706 7.07133 6.51 6.67933 6.118 6.446C5.73533 6.20333 5.11933 6.082 4.27 6.082H2.618V9.26H4.466ZM2.618 10.31V13.936H4.634C5.52067 13.936 6.13667 13.7633 6.482 13.418C6.82733 13.0727 7 12.62 7 12.06C7 11.7053 6.92067 11.3973 6.762 11.136C6.61267 10.8747 6.356 10.674 5.992 10.534C5.63733 10.3847 5.152 10.31 4.536 10.31H2.618ZM18.9195 11.234C18.9195 11.8593 18.8355 12.4147 18.6675 12.9C18.5088 13.376 18.2755 13.782 17.9675 14.118C17.6688 14.454 17.3001 14.7107 16.8615 14.888C16.4321 15.056 15.9515 15.14 15.4195 15.14C14.9248 15.14 14.4675 15.056 14.0475 14.888C13.6275 14.7107 13.2635 14.454 12.9555 14.118C12.6475 13.782 12.4048 13.376 12.2275 12.9C12.0595 12.4147 11.9755 11.8593 11.9755 11.234C11.9755 10.4033 12.1155 9.70333 12.3955 9.134C12.6755 8.55533 13.0768 8.11667 13.5995 7.818C14.1221 7.51 14.7428 7.356 15.4615 7.356C16.1428 7.356 16.7401 7.51 17.2535 7.818C17.7761 8.11667 18.1821 8.55533 18.4715 9.134C18.7701 9.70333 18.9195 10.4033 18.9195 11.234ZM13.2495 11.234C13.2495 11.822 13.3241 12.3353 13.4735 12.774C13.6321 13.2033 13.8748 13.5347 14.2015 13.768C14.5281 14.0013 14.9435 14.118 15.4475 14.118C15.9515 14.118 16.3668 14.0013 16.6935 13.768C17.0201 13.5347 17.2581 13.2033 17.4075 12.774C17.5661 12.3353 17.6455 11.822 17.6455 11.234C17.6455 10.6367 17.5661 10.128 17.4075 9.708C17.2488 9.288 17.0061 8.966 16.6795 8.742C16.3621 8.50867 15.9468 8.392 15.4335 8.392C14.6681 8.392 14.1128 8.644 13.7675 9.148C13.4221 9.652 13.2495 10.3473 13.2495 11.234ZM29.244 7.496V15H28.236L28.054 14.006H27.998C27.8394 14.2673 27.634 14.482 27.382 14.65C27.13 14.818 26.8547 14.9393 26.556 15.014C26.2574 15.098 25.9447 15.14 25.618 15.14C25.0207 15.14 24.5167 15.0467 24.106 14.86C23.7047 14.664 23.4014 14.3653 23.196 13.964C22.9907 13.5627 22.888 13.0447 22.888 12.41V7.496H24.134V12.326C24.134 12.9233 24.2694 13.3713 24.54 13.67C24.8107 13.9687 25.2307 14.118 25.8 14.118C26.36 14.118 26.7987 14.0153 27.116 13.81C27.4427 13.5953 27.6714 13.2873 27.802 12.886C27.942 12.4753 28.012 11.9807 28.012 11.402V7.496H29.244ZM37.1843 8.448H35.2943V15H34.0623V8.448H32.7463V7.874L34.0623 7.454V7.02C34.0623 6.376 34.1557 5.85333 34.3423 5.452C34.5383 5.05067 34.8183 4.75667 35.1823 4.57C35.5463 4.38333 35.985 4.29 36.4983 4.29C36.797 4.29 37.0677 4.318 37.3103 4.374C37.5623 4.42067 37.777 4.47667 37.9543 4.542L37.6323 5.508C37.483 5.46133 37.3103 5.41467 37.1143 5.368C36.9183 5.32133 36.7177 5.298 36.5123 5.298C36.1017 5.298 35.7937 5.438 35.5883 5.718C35.3923 5.98867 35.2943 6.418 35.2943 7.006V7.496H37.1843V8.448ZM42.5648 5.158C42.4808 5.48467 42.3735 5.83933 42.2428 6.222C42.1121 6.60467 41.9675 6.98733 41.8088 7.37C41.6595 7.74333 41.5101 8.098 41.3608 8.434H40.4508C40.5161 8.17267 40.5815 7.89267 40.6468 7.594C40.7215 7.29533 40.7868 6.99667 40.8428 6.698C40.9081 6.39 40.9641 6.09133 41.0108 5.802C41.0668 5.51267 41.1135 5.24667 41.1508 5.004H42.4668L42.5648 5.158ZM48.9461 5.004C49.7767 5.004 50.4581 5.11133 50.9901 5.326C51.5314 5.53133 51.9327 5.844 52.1941 6.264C52.4554 6.684 52.5861 7.21133 52.5861 7.846C52.5861 8.378 52.4881 8.82133 52.2921 9.176C52.0961 9.53067 51.8441 9.81533 51.5361 10.03C51.2374 10.2353 50.9201 10.3987 50.5841 10.52L53.3281 15H51.8581L49.4361 10.87H47.4481V15H46.1881V5.004H48.9461ZM48.8761 6.096H47.4481V9.806H48.9461C49.4874 9.806 49.9307 9.736 50.2761 9.596C50.6214 9.44667 50.8734 9.232 51.0321 8.952C51.2001 8.672 51.2841 8.322 51.2841 7.902C51.2841 7.46333 51.1954 7.11333 51.0181 6.852C50.8501 6.59067 50.5887 6.39933 50.2341 6.278C49.8794 6.15667 49.4267 6.096 48.8761 6.096ZM58.0611 7.496V15H56.8291V7.496H58.0611ZM57.4591 4.682C57.6457 4.682 57.8091 4.74733 57.9491 4.878C58.0984 4.99933 58.1731 5.19533 58.1731 5.466C58.1731 5.72733 58.0984 5.92333 57.9491 6.054C57.8091 6.18467 57.6457 6.25 57.4591 6.25C57.2537 6.25 57.0811 6.18467 56.9411 6.054C56.8011 5.92333 56.7311 5.72733 56.7311 5.466C56.7311 5.19533 56.8011 4.99933 56.9411 4.878C57.0811 4.74733 57.2537 4.682 57.4591 4.682ZM65.1984 7.356C65.6931 7.356 66.1364 7.44933 66.5284 7.636C66.9298 7.82267 67.2704 8.10733 67.5504 8.49H67.6204L67.7884 7.496H68.7684V15.126C68.7684 15.8353 68.6471 16.428 68.4044 16.904C68.1618 17.3893 67.7931 17.7533 67.2984 17.996C66.8038 18.2387 66.1738 18.36 65.4084 18.36C64.8671 18.36 64.3678 18.318 63.9104 18.234C63.4624 18.1593 63.0611 18.0427 62.7064 17.884V16.75C62.9491 16.8713 63.2151 16.974 63.5044 17.058C63.7938 17.1513 64.1064 17.2213 64.4424 17.268C64.7784 17.3147 65.1238 17.338 65.4784 17.338C66.1224 17.338 66.6264 17.1467 66.9904 16.764C67.3638 16.3907 67.5504 15.8773 67.5504 15.224V14.93C67.5504 14.818 67.5551 14.6593 67.5644 14.454C67.5738 14.2393 67.5831 14.09 67.5924 14.006H67.5364C67.2751 14.3887 66.9484 14.6733 66.5564 14.86C66.1738 15.0467 65.7258 15.14 65.2124 15.14C64.2418 15.14 63.4811 14.7993 62.9304 14.118C62.3891 13.4367 62.1184 12.4847 62.1184 11.262C62.1184 10.4593 62.2398 9.76867 62.4824 9.19C62.7344 8.602 63.0891 8.14933 63.5464 7.832C64.0038 7.51467 64.5544 7.356 65.1984 7.356ZM65.3664 8.392C64.9464 8.392 64.5871 8.504 64.2884 8.728C63.9991 8.952 63.7751 9.27867 63.6164 9.708C63.4671 10.1373 63.3924 10.66 63.3924 11.276C63.3924 12.2 63.5604 12.9093 63.8964 13.404C64.2418 13.8893 64.7411 14.132 65.3944 14.132C65.7771 14.132 66.1038 14.0853 66.3744 13.992C66.6451 13.8893 66.8691 13.7353 67.0464 13.53C67.2238 13.3153 67.3544 13.0447 67.4384 12.718C67.5224 12.3913 67.5644 12.004 67.5644 11.556V11.262C67.5644 10.5807 67.4851 10.03 67.3264 9.61C67.1771 9.19 66.9391 8.882 66.6124 8.686C66.2858 8.49 65.8704 8.392 65.3664 8.392ZM74.4837 7.482C74.4837 7.65933 74.4744 7.84133 74.4557 8.028C74.4464 8.21467 74.4324 8.38267 74.4137 8.532H74.4977C74.6564 8.27067 74.8571 8.056 75.0997 7.888C75.3424 7.72 75.6131 7.594 75.9117 7.51C76.2104 7.41667 76.5184 7.37 76.8357 7.37C77.4424 7.37 77.9464 7.468 78.3477 7.664C78.7584 7.85067 79.0664 8.14467 79.2717 8.546C79.4771 8.94733 79.5797 9.47 79.5797 10.114V15H78.3617V10.198C78.3617 9.59133 78.2264 9.13867 77.9557 8.84C77.6851 8.54133 77.2604 8.392 76.6817 8.392C76.1217 8.392 75.6831 8.49933 75.3657 8.714C75.0484 8.91933 74.8197 9.22733 74.6797 9.638C74.5491 10.0393 74.4837 10.534 74.4837 11.122V15H73.2517V4.36H74.4837V7.482ZM86.512 14.132C86.6987 14.132 86.89 14.118 87.086 14.09C87.282 14.0527 87.4407 14.0153 87.562 13.978V14.916C87.4314 14.9813 87.2447 15.0327 87.002 15.07C86.7594 15.1167 86.526 15.14 86.302 15.14C85.91 15.14 85.546 15.0747 85.21 14.944C84.8834 14.804 84.6174 14.566 84.412 14.23C84.2067 13.894 84.104 13.4227 84.104 12.816V8.448H83.04V7.86L84.118 7.37L84.608 5.774H85.336V7.496H87.506V8.448H85.336V12.788C85.336 13.2453 85.4434 13.586 85.658 13.81C85.882 14.0247 86.1667 14.132 86.512 14.132Z" fill="white"/>
<defs>
<clipPath id="clip0_318_14649">
<rect width="11.8663" height="10.1067" fill="white" transform="translate(99 5)"/>
</clipPath>
</defs>
</svg>
