<svg width="390" height="78" viewBox="0 0 390 78" fill="none" xmlns="http://www.w3.org/2000/svg">
<g clip-path="url(#clip0_263_2012)">
<rect width="390" height="78" fill="white"/>
<path d="M217.823 53.224C217.464 53.224 217.145 53.29 216.866 53.422C216.587 53.554 216.349 53.7447 216.151 53.994C215.96 54.2433 215.814 54.544 215.711 54.896C215.616 55.248 215.568 55.644 215.568 56.084C215.568 56.678 215.649 57.1877 215.81 57.613C215.971 58.031 216.217 58.3537 216.547 58.581C216.884 58.8083 217.306 58.922 217.812 58.922C218.149 58.922 218.472 58.889 218.78 58.823C219.095 58.7497 219.425 58.6543 219.77 58.537V59.736C219.447 59.868 219.121 59.9633 218.791 60.022C218.468 60.0807 218.094 60.11 217.669 60.11C216.862 60.11 216.195 59.945 215.667 59.615C215.139 59.2777 214.747 58.8083 214.49 58.207C214.233 57.5983 214.105 56.887 214.105 56.073C214.105 55.479 214.186 54.9363 214.347 54.445C214.516 53.9537 214.754 53.5283 215.062 53.169C215.377 52.8097 215.766 52.531 216.228 52.333C216.69 52.135 217.222 52.036 217.823 52.036C218.219 52.036 218.608 52.0837 218.989 52.179C219.378 52.267 219.741 52.3917 220.078 52.553L219.594 53.708C219.315 53.5833 219.026 53.4733 218.725 53.378C218.432 53.2753 218.131 53.224 217.823 53.224ZM226.653 57.008C226.653 57.5067 226.587 57.9467 226.455 58.328C226.323 58.7093 226.133 59.0357 225.883 59.307C225.641 59.571 225.341 59.7727 224.981 59.912C224.629 60.044 224.237 60.11 223.804 60.11C223.394 60.11 223.016 60.044 222.671 59.912C222.327 59.7727 222.026 59.571 221.769 59.307C221.52 59.0357 221.326 58.7093 221.186 58.328C221.047 57.9467 220.977 57.5067 220.977 57.008C220.977 56.348 221.091 55.7907 221.318 55.336C221.546 54.874 221.872 54.5257 222.297 54.291C222.73 54.049 223.24 53.928 223.826 53.928C224.384 53.928 224.871 54.049 225.289 54.291C225.715 54.5257 226.048 54.874 226.29 55.336C226.532 55.7907 226.653 56.348 226.653 57.008ZM222.396 57.008C222.396 57.426 222.444 57.7853 222.539 58.086C222.642 58.3793 222.796 58.603 223.001 58.757C223.214 58.911 223.485 58.988 223.815 58.988C224.153 58.988 224.424 58.911 224.629 58.757C224.842 58.603 224.996 58.3793 225.091 58.086C225.187 57.7853 225.234 57.426 225.234 57.008C225.234 56.5827 225.183 56.227 225.08 55.941C224.985 55.6477 224.831 55.4277 224.618 55.281C224.413 55.127 224.145 55.05 223.815 55.05C223.317 55.05 222.954 55.2187 222.726 55.556C222.506 55.8933 222.396 56.3773 222.396 57.008ZM234.917 53.928C235.592 53.928 236.098 54.1003 236.435 54.445C236.78 54.7897 236.952 55.347 236.952 56.117V60H235.566V56.381C235.566 55.941 235.486 55.611 235.324 55.391C235.163 55.1637 234.906 55.05 234.554 55.05C234.07 55.05 233.726 55.2077 233.52 55.523C233.315 55.8383 233.212 56.2967 233.212 56.898V60H231.826V56.381C231.826 56.0877 231.79 55.842 231.716 55.644C231.643 55.446 231.529 55.2993 231.375 55.204C231.229 55.1013 231.038 55.05 230.803 55.05C230.473 55.05 230.209 55.1307 230.011 55.292C229.813 55.446 229.674 55.6733 229.593 55.974C229.513 56.2747 229.472 56.645 229.472 57.085V60H228.086V54.038H229.153L229.351 54.819H229.428C229.553 54.6137 229.703 54.445 229.879 54.313C230.063 54.181 230.264 54.0857 230.484 54.027C230.712 53.961 230.939 53.928 231.166 53.928C231.614 53.928 231.991 54.005 232.299 54.159C232.607 54.3057 232.838 54.5367 232.992 54.852H233.102C233.286 54.5293 233.542 54.2947 233.872 54.148C234.21 54.0013 234.558 53.928 234.917 53.928ZM241.824 53.928C242.521 53.928 243.082 54.1883 243.507 54.709C243.932 55.2223 244.145 55.9887 244.145 57.008C244.145 57.6827 244.046 58.251 243.848 58.713C243.65 59.175 243.375 59.5233 243.023 59.758C242.671 59.9927 242.26 60.11 241.791 60.11C241.505 60.11 241.252 60.0733 241.032 60C240.812 59.9193 240.625 59.8203 240.471 59.703C240.317 59.5783 240.185 59.4463 240.075 59.307H239.987C240.016 59.439 240.038 59.5893 240.053 59.758C240.068 59.9193 240.075 60.0733 240.075 60.22V62.64H238.689V54.038H239.811L240.009 54.83H240.075C240.185 54.6613 240.317 54.511 240.471 54.379C240.632 54.2397 240.823 54.1297 241.043 54.049C241.27 53.9683 241.531 53.928 241.824 53.928ZM241.428 55.05C241.105 55.05 240.845 55.116 240.647 55.248C240.449 55.3727 240.306 55.567 240.218 55.831C240.13 56.095 240.082 56.425 240.075 56.821V56.997C240.075 57.4223 240.115 57.7817 240.196 58.075C240.284 58.3683 240.427 58.592 240.625 58.746C240.83 58.9 241.105 58.977 241.45 58.977C241.743 58.977 241.982 58.8963 242.165 58.735C242.356 58.5737 242.495 58.3463 242.583 58.053C242.678 57.7523 242.726 57.3967 242.726 56.986C242.726 56.37 242.62 55.8933 242.407 55.556C242.202 55.2187 241.875 55.05 241.428 55.05ZM247.885 58.999C248.061 58.999 248.229 58.9843 248.391 58.955C248.552 58.9183 248.702 58.878 248.842 58.834V59.868C248.695 59.934 248.504 59.989 248.27 60.033C248.035 60.0843 247.789 60.11 247.533 60.11C247.195 60.11 246.887 60.055 246.609 59.945C246.337 59.8277 246.117 59.6297 245.949 59.351C245.787 59.0723 245.707 58.6837 245.707 58.185V55.083H244.904V54.478L245.784 53.994L246.224 52.729H247.093V54.038H248.787V55.083H247.093V58.174C247.093 58.4527 247.166 58.6617 247.313 58.801C247.459 58.933 247.65 58.999 247.885 58.999ZM252.441 53.928C252.977 53.928 253.435 54.038 253.816 54.258C254.205 54.4707 254.506 54.7787 254.718 55.182C254.931 55.578 255.037 56.062 255.037 56.634V57.338H251.099C251.114 57.8807 251.264 58.3023 251.55 58.603C251.836 58.8963 252.232 59.043 252.738 59.043C253.127 59.043 253.472 59.0063 253.772 58.933C254.08 58.8523 254.396 58.7387 254.718 58.592V59.703C254.425 59.8423 254.121 59.945 253.805 60.011C253.49 60.077 253.112 60.11 252.672 60.11C252.093 60.11 251.576 60 251.121 59.78C250.674 59.5527 250.322 59.2117 250.065 58.757C249.816 58.3023 249.691 57.7377 249.691 57.063C249.691 56.381 249.805 55.809 250.032 55.347C250.267 54.8777 250.59 54.5257 251 54.291C251.411 54.049 251.891 53.928 252.441 53.928ZM252.441 54.951C252.075 54.951 251.774 55.072 251.539 55.314C251.312 55.5487 251.176 55.9007 251.132 56.37H253.695C253.695 56.0913 253.648 55.8457 253.552 55.633C253.464 55.4203 253.329 55.2553 253.145 55.138C252.962 55.0133 252.727 54.951 252.441 54.951Z" fill="black"/>
<path d="M234 29.9999C238.602 29.9999 242.333 26.269 242.333 21.6666C242.333 17.0642 238.602 13.3333 234 13.3333C229.398 13.3333 225.667 17.0642 225.667 21.6666C225.667 26.269 229.398 29.9999 234 29.9999Z" stroke="black" stroke-width="3"/>
<path d="M242.333 46.6666H222.777C222.304 46.6667 221.837 46.5663 221.406 46.372C220.975 46.1776 220.59 45.8939 220.277 45.5396C219.964 45.1853 219.73 44.7684 219.591 44.3168C219.452 43.8651 219.41 43.389 219.468 42.9199L220.118 37.7133C220.269 36.5036 220.857 35.3909 221.771 34.5843C222.685 33.7777 223.863 33.3328 225.082 33.3333H225.667" stroke="black" stroke-width="3" stroke-linecap="round" stroke-linejoin="round"/>
<path d="M240.667 36.6666L244.417 39.9999L250.667 33.3333" stroke="black" stroke-width="3" stroke-linecap="round" stroke-linejoin="round"/>
<path d="M302.507 52.146C303.526 52.146 304.267 52.3587 304.729 52.784C305.198 53.2093 305.433 53.796 305.433 54.544C305.433 54.8813 305.381 55.204 305.279 55.512C305.176 55.8127 305.004 56.084 304.762 56.326C304.52 56.568 304.201 56.7587 303.805 56.898C303.416 57.0373 302.932 57.107 302.353 57.107H301.572V60H300.164V52.146H302.507ZM302.419 53.312H301.572V55.941H302.21C302.591 55.941 302.914 55.897 303.178 55.809C303.449 55.7137 303.654 55.567 303.794 55.369C303.933 55.171 304.003 54.9143 304.003 54.599C304.003 54.1663 303.874 53.8437 303.618 53.631C303.361 53.4183 302.961 53.312 302.419 53.312ZM309.218 53.928C309.988 53.928 310.571 54.0967 310.967 54.434C311.371 54.764 311.572 55.2847 311.572 55.996V60H310.593L310.318 59.175H310.274C310.106 59.3877 309.93 59.5673 309.746 59.714C309.57 59.8533 309.365 59.9523 309.13 60.011C308.903 60.077 308.624 60.11 308.294 60.11C307.942 60.11 307.623 60.044 307.337 59.912C307.059 59.78 306.839 59.5783 306.677 59.307C306.516 59.0283 306.435 58.68 306.435 58.262C306.435 57.646 306.659 57.184 307.106 56.876C307.561 56.5607 308.247 56.3883 309.163 56.359L310.197 56.326V56.029C310.197 55.6477 310.106 55.3763 309.922 55.215C309.739 55.0537 309.482 54.973 309.152 54.973C308.852 54.973 308.562 55.017 308.283 55.105C308.005 55.193 307.733 55.2957 307.469 55.413L307.029 54.445C307.323 54.291 307.656 54.1663 308.03 54.071C308.412 53.9757 308.808 53.928 309.218 53.928ZM309.471 57.206C308.863 57.228 308.441 57.3343 308.206 57.525C307.972 57.7083 307.854 57.9577 307.854 58.273C307.854 58.5517 307.939 58.7533 308.107 58.878C308.276 59.0027 308.492 59.065 308.756 59.065C309.16 59.065 309.501 58.9513 309.779 58.724C310.058 58.4893 310.197 58.1447 310.197 57.69V57.184L309.471 57.206ZM316.499 53.928C317.166 53.928 317.687 54.1003 318.061 54.445C318.442 54.7897 318.633 55.347 318.633 56.117V60H317.247V56.392C317.247 55.9447 317.159 55.611 316.983 55.391C316.807 55.1637 316.528 55.05 316.147 55.05C315.59 55.05 315.208 55.226 315.003 55.578C314.798 55.9227 314.695 56.425 314.695 57.085V60H313.309V54.038H314.376L314.574 54.819H314.651C314.783 54.6137 314.944 54.445 315.135 54.313C315.326 54.181 315.538 54.0857 315.773 54.027C316.008 53.961 316.25 53.928 316.499 53.928ZM321.753 54.038V60H320.367V54.038H321.753ZM321.06 51.739C321.265 51.739 321.445 51.794 321.599 51.904C321.753 52.0067 321.83 52.1937 321.83 52.465C321.83 52.729 321.753 52.9197 321.599 53.037C321.445 53.147 321.265 53.202 321.06 53.202C320.847 53.202 320.664 53.147 320.51 53.037C320.363 52.9197 320.29 52.729 320.29 52.465C320.29 52.1937 320.363 52.0067 320.51 51.904C320.664 51.794 320.847 51.739 321.06 51.739ZM325.923 53.928C326.458 53.928 326.916 54.038 327.298 54.258C327.686 54.4707 327.987 54.7787 328.2 55.182C328.412 55.578 328.519 56.062 328.519 56.634V57.338H324.581C324.595 57.8807 324.746 58.3023 325.032 58.603C325.318 58.8963 325.714 59.043 326.22 59.043C326.608 59.043 326.953 59.0063 327.254 58.933C327.562 58.8523 327.877 58.7387 328.2 58.592V59.703C327.906 59.8423 327.602 59.945 327.287 60.011C326.971 60.077 326.594 60.11 326.154 60.11C325.574 60.11 325.057 60 324.603 59.78C324.155 59.5527 323.803 59.2117 323.547 58.757C323.297 58.3023 323.173 57.7377 323.173 57.063C323.173 56.381 323.286 55.809 323.514 55.347C323.748 54.8777 324.071 54.5257 324.482 54.291C324.892 54.049 325.373 53.928 325.923 53.928ZM325.923 54.951C325.556 54.951 325.255 55.072 325.021 55.314C324.793 55.5487 324.658 55.9007 324.614 56.37H327.177C327.177 56.0913 327.129 55.8457 327.034 55.633C326.946 55.4203 326.81 55.2553 326.627 55.138C326.443 55.0133 326.209 54.951 325.923 54.951ZM333.04 53.928C333.128 53.928 333.231 53.9317 333.348 53.939C333.466 53.9463 333.565 53.961 333.645 53.983L333.524 55.27C333.458 55.2553 333.37 55.2443 333.26 55.237C333.158 55.2223 333.066 55.215 332.985 55.215C332.765 55.215 332.553 55.2517 332.347 55.325C332.149 55.391 331.97 55.4937 331.808 55.633C331.654 55.765 331.53 55.9373 331.434 56.15C331.346 56.3627 331.302 56.6157 331.302 56.909V60H329.916V54.038H330.983L331.181 55.072H331.247C331.365 54.8593 331.511 54.6687 331.687 54.5C331.863 54.324 332.065 54.1847 332.292 54.082C332.527 53.9793 332.776 53.928 333.04 53.928Z" fill="black"/>
<path d="M331 23H328.633L322.447 12.1733L319.553 13.8267L324.795 23H307.205L312.448 13.8267L309.553 12.1733L303.367 23H301C300.744 23.0003 300.491 23.0596 300.262 23.1732C300.032 23.2869 299.832 23.4519 299.676 23.6555C299.521 23.859 299.414 24.0957 299.365 24.347C299.315 24.5984 299.325 24.8578 299.392 25.105L304.057 42.2117C304.251 42.9163 304.67 43.538 305.251 43.9814C305.832 44.4248 306.542 44.6655 307.273 44.6667H324.728C326.225 44.6667 327.548 43.6583 327.945 42.2083L332.61 25.1033C332.678 24.856 332.688 24.5963 332.638 24.3446C332.589 24.0929 332.483 23.856 332.327 23.6523C332.171 23.4487 331.97 23.2838 331.74 23.1707C331.51 23.0575 331.256 22.9991 331 23ZM324.727 41.3333V43V41.3333H307.273L303.183 26.3333H328.817L324.727 41.3333Z" fill="black"/>
<path d="M311 29.6667H314.333V38.0001H311V29.6667ZM317.667 29.6667H321V38.0001H317.667V29.6667Z" fill="black"/>
<path d="M54.6667 40.3333H73.3333C74.0406 40.3333 74.7189 40.0523 75.219 39.5522C75.7191 39.0521 76 38.3738 76 37.6666V25.6666C76.001 25.4911 75.9674 25.3172 75.901 25.1547C75.8347 24.9923 75.7369 24.8445 75.6133 24.7199L64.9467 14.0533C64.6969 13.8049 64.3589 13.6655 64.0067 13.6655C63.6544 13.6655 63.3165 13.8049 63.0667 14.0533L52.4 24.7199C52.274 24.8434 52.1738 24.9907 52.1051 25.1532C52.0365 25.3157 52.0007 25.4902 52 25.6666V37.6666C52 38.3738 52.281 39.0521 52.781 39.5522C53.2811 40.0523 53.9594 40.3333 54.6667 40.3333ZM61.3333 37.6666V30.9999H66.6667V37.6666H61.3333ZM54.6667 26.2133L64 16.8799L73.3333 26.2133V37.6666H69.3333V30.9999C69.3333 30.2927 69.0524 29.6144 68.5523 29.1143C68.0522 28.6142 67.3739 28.3333 66.6667 28.3333H61.3333C60.6261 28.3333 59.9478 28.6142 59.4477 29.1143C58.9476 29.6144 58.6667 30.2927 58.6667 30.9999V37.6666H54.6667V26.2133Z" fill="black"/>
<path d="M47.2905 60L46.5755 57.921H43.6165L42.9125 60H41.4165L44.2985 52.113H45.9045L48.7865 60H47.2905ZM45.5305 54.687C45.5012 54.5843 45.4572 54.445 45.3985 54.269C45.3398 54.093 45.2812 53.9133 45.2225 53.73C45.1712 53.5393 45.1308 53.3817 45.1015 53.257C45.0648 53.4037 45.0172 53.5723 44.9585 53.763C44.9072 53.9537 44.8558 54.1333 44.8045 54.302C44.7605 54.4707 44.7238 54.599 44.6945 54.687L44.0015 56.711H46.2125L45.5305 54.687ZM52.0964 60.11C51.5317 60.11 51.0404 60.0037 50.6224 59.791C50.2117 59.571 49.8927 59.2373 49.6654 58.79C49.4454 58.3353 49.3354 57.756 49.3354 57.052C49.3354 56.3187 49.4564 55.7247 49.6984 55.27C49.9477 54.808 50.2887 54.4707 50.7214 54.258C51.1541 54.038 51.6491 53.928 52.2064 53.928C52.5804 53.928 52.9141 53.9647 53.2074 54.038C53.5007 54.1113 53.7501 54.1993 53.9554 54.302L53.5484 55.391C53.3211 55.303 53.0937 55.2297 52.8664 55.171C52.6391 55.105 52.4191 55.072 52.2064 55.072C51.8764 55.072 51.6014 55.1453 51.3814 55.292C51.1687 55.4387 51.0111 55.6587 50.9084 55.952C50.8057 56.238 50.7544 56.601 50.7544 57.041C50.7544 57.4663 50.8057 57.822 50.9084 58.108C51.0184 58.394 51.1797 58.6103 51.3924 58.757C51.6051 58.8963 51.8691 58.966 52.1844 58.966C52.5217 58.966 52.8187 58.9257 53.0754 58.845C53.3321 58.7643 53.5741 58.6543 53.8014 58.515V59.714C53.5741 59.8533 53.3284 59.9523 53.0644 60.011C52.8077 60.077 52.4851 60.11 52.0964 60.11ZM57.6071 60.11C57.0425 60.11 56.5511 60.0037 56.1331 59.791C55.7225 59.571 55.4035 59.2373 55.1761 58.79C54.9561 58.3353 54.8461 57.756 54.8461 57.052C54.8461 56.3187 54.9671 55.7247 55.2091 55.27C55.4585 54.808 55.7995 54.4707 56.2321 54.258C56.6648 54.038 57.1598 53.928 57.7171 53.928C58.0911 53.928 58.4248 53.9647 58.7181 54.038C59.0115 54.1113 59.2608 54.1993 59.4661 54.302L59.0591 55.391C58.8318 55.303 58.6045 55.2297 58.3771 55.171C58.1498 55.105 57.9298 55.072 57.7171 55.072C57.3871 55.072 57.1121 55.1453 56.8921 55.292C56.6795 55.4387 56.5218 55.6587 56.4191 55.952C56.3165 56.238 56.2651 56.601 56.2651 57.041C56.2651 57.4663 56.3165 57.822 56.4191 58.108C56.5291 58.394 56.6905 58.6103 56.9031 58.757C57.1158 58.8963 57.3798 58.966 57.6951 58.966C58.0325 58.966 58.3295 58.9257 58.5861 58.845C58.8428 58.7643 59.0848 58.6543 59.3121 58.515V59.714C59.0848 59.8533 58.8391 59.9523 58.5751 60.011C58.3185 60.077 57.9958 60.11 57.6071 60.11ZM65.9999 54.038V60H64.9109L64.7239 59.23H64.6579C64.5332 59.4353 64.3719 59.604 64.1739 59.736C63.9759 59.8607 63.7595 59.9523 63.5249 60.011C63.2902 60.077 63.0482 60.11 62.7989 60.11C62.3589 60.11 61.9775 60.033 61.6549 59.879C61.3322 59.725 61.0865 59.4903 60.9179 59.175C60.7492 58.8523 60.6649 58.438 60.6649 57.932V54.038H62.0509V57.657C62.0509 58.097 62.1389 58.4307 62.3149 58.658C62.4909 58.878 62.7695 58.988 63.1509 58.988C63.5249 58.988 63.8182 58.911 64.0309 58.757C64.2435 58.5957 64.3939 58.3647 64.4819 58.064C64.5699 57.7633 64.6139 57.393 64.6139 56.953V54.038H65.9999ZM70.1645 53.928C70.6998 53.928 71.1582 54.038 71.5395 54.258C71.9282 54.4707 72.2288 54.7787 72.4415 55.182C72.6542 55.578 72.7605 56.062 72.7605 56.634V57.338H68.8225C68.8372 57.8807 68.9875 58.3023 69.2735 58.603C69.5595 58.8963 69.9555 59.043 70.4615 59.043C70.8502 59.043 71.1948 59.0063 71.4955 58.933C71.8035 58.8523 72.1188 58.7387 72.4415 58.592V59.703C72.1482 59.8423 71.8438 59.945 71.5285 60.011C71.2132 60.077 70.8355 60.11 70.3955 60.11C69.8162 60.11 69.2992 60 68.8445 59.78C68.3972 59.5527 68.0452 59.2117 67.7885 58.757C67.5392 58.3023 67.4145 57.7377 67.4145 57.063C67.4145 56.381 67.5282 55.809 67.7555 55.347C67.9902 54.8777 68.3128 54.5257 68.7235 54.291C69.1342 54.049 69.6145 53.928 70.1645 53.928ZM70.1645 54.951C69.7978 54.951 69.4972 55.072 69.2625 55.314C69.0352 55.5487 68.8995 55.9007 68.8555 56.37H71.4185C71.4185 56.0913 71.3708 55.8457 71.2755 55.633C71.1875 55.4203 71.0518 55.2553 70.8685 55.138C70.6852 55.0133 70.4505 54.951 70.1645 54.951ZM75.5441 54.038V60H74.1581V54.038H75.5441ZM74.8511 51.739C75.0564 51.739 75.2361 51.794 75.3901 51.904C75.5441 52.0067 75.6211 52.1937 75.6211 52.465C75.6211 52.729 75.5441 52.9197 75.3901 53.037C75.2361 53.147 75.0564 53.202 74.8511 53.202C74.6384 53.202 74.4551 53.147 74.3011 53.037C74.1544 52.9197 74.0811 52.729 74.0811 52.465C74.0811 52.1937 74.1544 52.0067 74.3011 51.904C74.4551 51.794 74.6384 51.739 74.8511 51.739ZM78.7023 60H77.3163V51.64H78.7023V60Z" fill="black"/>
<path d="M127.342 52.146C128.361 52.146 129.102 52.3587 129.564 52.784C130.033 53.2093 130.268 53.796 130.268 54.544C130.268 54.8813 130.217 55.204 130.114 55.512C130.011 55.8127 129.839 56.084 129.597 56.326C129.355 56.568 129.036 56.7587 128.64 56.898C128.251 57.0373 127.767 57.107 127.188 57.107H126.407V60H124.999V52.146H127.342ZM127.254 53.312H126.407V55.941H127.045C127.426 55.941 127.749 55.897 128.013 55.809C128.284 55.7137 128.49 55.567 128.629 55.369C128.768 55.171 128.838 54.9143 128.838 54.599C128.838 54.1663 128.71 53.8437 128.453 53.631C128.196 53.4183 127.797 53.312 127.254 53.312ZM134.054 53.928C134.824 53.928 135.407 54.0967 135.803 54.434C136.206 54.764 136.408 55.2847 136.408 55.996V60H135.429L135.154 59.175H135.11C134.941 59.3877 134.765 59.5673 134.582 59.714C134.406 59.8533 134.2 59.9523 133.966 60.011C133.738 60.077 133.46 60.11 133.13 60.11C132.778 60.11 132.459 60.044 132.173 59.912C131.894 59.78 131.674 59.5783 131.513 59.307C131.351 59.0283 131.271 58.68 131.271 58.262C131.271 57.646 131.494 57.184 131.942 56.876C132.396 56.5607 133.082 56.3883 133.999 56.359L135.033 56.326V56.029C135.033 55.6477 134.941 55.3763 134.758 55.215C134.574 55.0537 134.318 54.973 133.988 54.973C133.687 54.973 133.397 55.017 133.119 55.105C132.84 55.193 132.569 55.2957 132.305 55.413L131.865 54.445C132.158 54.291 132.492 54.1663 132.866 54.071C133.247 53.9757 133.643 53.928 134.054 53.928ZM134.307 57.206C133.698 57.228 133.276 57.3343 133.042 57.525C132.807 57.7083 132.69 57.9577 132.69 58.273C132.69 58.5517 132.774 58.7533 132.943 58.878C133.111 59.0027 133.328 59.065 133.592 59.065C133.995 59.065 134.336 58.9513 134.615 58.724C134.893 58.4893 135.033 58.1447 135.033 57.69V57.184L134.307 57.206ZM141.268 53.928C141.356 53.928 141.459 53.9317 141.576 53.939C141.694 53.9463 141.793 53.961 141.873 53.983L141.752 55.27C141.686 55.2553 141.598 55.2443 141.488 55.237C141.386 55.2223 141.294 55.215 141.213 55.215C140.993 55.215 140.781 55.2517 140.575 55.325C140.377 55.391 140.198 55.4937 140.036 55.633C139.882 55.765 139.758 55.9373 139.662 56.15C139.574 56.3627 139.53 56.6157 139.53 56.909V60H138.144V54.038H139.211L139.409 55.072H139.475C139.593 54.8593 139.739 54.6687 139.915 54.5C140.091 54.324 140.293 54.1847 140.52 54.082C140.755 53.9793 141.004 53.928 141.268 53.928ZM145.173 60.11C144.608 60.11 144.117 60.0037 143.699 59.791C143.288 59.571 142.969 59.2373 142.742 58.79C142.522 58.3353 142.412 57.756 142.412 57.052C142.412 56.3187 142.533 55.7247 142.775 55.27C143.024 54.808 143.365 54.4707 143.798 54.258C144.23 54.038 144.725 53.928 145.283 53.928C145.657 53.928 145.99 53.9647 146.284 54.038C146.577 54.1113 146.826 54.1993 147.032 54.302L146.625 55.391C146.397 55.303 146.17 55.2297 145.943 55.171C145.715 55.105 145.495 55.072 145.283 55.072C144.953 55.072 144.678 55.1453 144.458 55.292C144.245 55.4387 144.087 55.6587 143.985 55.952C143.882 56.238 143.831 56.601 143.831 57.041C143.831 57.4663 143.882 57.822 143.985 58.108C144.095 58.394 144.256 58.6103 144.469 58.757C144.681 58.8963 144.945 58.966 145.261 58.966C145.598 58.966 145.895 58.9257 146.152 58.845C146.408 58.7643 146.65 58.6543 146.878 58.515V59.714C146.65 59.8533 146.405 59.9523 146.141 60.011C145.884 60.077 145.561 60.11 145.173 60.11ZM153.598 57.008C153.598 57.5067 153.532 57.9467 153.4 58.328C153.268 58.7093 153.078 59.0357 152.828 59.307C152.586 59.571 152.286 59.7727 151.926 59.912C151.574 60.044 151.182 60.11 150.749 60.11C150.339 60.11 149.961 60.044 149.616 59.912C149.272 59.7727 148.971 59.571 148.714 59.307C148.465 59.0357 148.271 58.7093 148.131 58.328C147.992 57.9467 147.922 57.5067 147.922 57.008C147.922 56.348 148.036 55.7907 148.263 55.336C148.491 54.874 148.817 54.5257 149.242 54.291C149.675 54.049 150.185 53.928 150.771 53.928C151.329 53.928 151.816 54.049 152.234 54.291C152.66 54.5257 152.993 54.874 153.235 55.336C153.477 55.7907 153.598 56.348 153.598 57.008ZM149.341 57.008C149.341 57.426 149.389 57.7853 149.484 58.086C149.587 58.3793 149.741 58.603 149.946 58.757C150.159 58.911 150.43 58.988 150.76 58.988C151.098 58.988 151.369 58.911 151.574 58.757C151.787 58.603 151.941 58.3793 152.036 58.086C152.132 57.7853 152.179 57.426 152.179 57.008C152.179 56.5827 152.128 56.227 152.025 55.941C151.93 55.6477 151.776 55.4277 151.563 55.281C151.358 55.127 151.09 55.05 150.76 55.05C150.262 55.05 149.899 55.2187 149.671 55.556C149.451 55.8933 149.341 56.3773 149.341 57.008ZM160.322 54.038V60H159.233L159.046 59.23H158.98C158.855 59.4353 158.694 59.604 158.496 59.736C158.298 59.8607 158.082 59.9523 157.847 60.011C157.612 60.077 157.37 60.11 157.121 60.11C156.681 60.11 156.3 60.033 155.977 59.879C155.654 59.725 155.409 59.4903 155.24 59.175C155.071 58.8523 154.987 58.438 154.987 57.932V54.038H156.373V57.657C156.373 58.097 156.461 58.4307 156.637 58.658C156.813 58.878 157.092 58.988 157.473 58.988C157.847 58.988 158.14 58.911 158.353 58.757C158.566 58.5957 158.716 58.3647 158.804 58.064C158.892 57.7633 158.936 57.393 158.936 56.953V54.038H160.322ZM165.213 53.928C165.301 53.928 165.403 53.9317 165.521 53.939C165.638 53.9463 165.737 53.961 165.818 53.983L165.697 55.27C165.631 55.2553 165.543 55.2443 165.433 55.237C165.33 55.2223 165.238 55.215 165.158 55.215C164.938 55.215 164.725 55.2517 164.52 55.325C164.322 55.391 164.142 55.4937 163.981 55.633C163.827 55.765 163.702 55.9373 163.607 56.15C163.519 56.3627 163.475 56.6157 163.475 56.909V60H162.089V54.038H163.156L163.354 55.072H163.42C163.537 54.8593 163.684 54.6687 163.86 54.5C164.036 54.324 164.237 54.1847 164.465 54.082C164.699 53.9793 164.949 53.928 165.213 53.928ZM168.309 54.038V60H166.923V54.038H168.309ZM167.616 51.739C167.821 51.739 168.001 51.794 168.155 51.904C168.309 52.0067 168.386 52.1937 168.386 52.465C168.386 52.729 168.309 52.9197 168.155 53.037C168.001 53.147 167.821 53.202 167.616 53.202C167.403 53.202 167.22 53.147 167.066 53.037C166.919 52.9197 166.846 52.729 166.846 52.465C166.846 52.1937 166.919 52.0067 167.066 51.904C167.22 51.794 167.403 51.739 167.616 51.739ZM173.205 53.928C173.293 53.928 173.396 53.9317 173.513 53.939C173.63 53.9463 173.729 53.961 173.81 53.983L173.689 55.27C173.623 55.2553 173.535 55.2443 173.425 55.237C173.322 55.2223 173.231 55.215 173.15 55.215C172.93 55.215 172.717 55.2517 172.512 55.325C172.314 55.391 172.134 55.4937 171.973 55.633C171.819 55.765 171.694 55.9373 171.599 56.15C171.511 56.3627 171.467 56.6157 171.467 56.909V60H170.081V54.038H171.148L171.346 55.072H171.412C171.529 54.8593 171.676 54.6687 171.852 54.5C172.028 54.324 172.23 54.1847 172.457 54.082C172.692 53.9793 172.941 53.928 173.205 53.928Z" fill="black"/>
<path d="M154.652 36.6521L163 44.9999" stroke="black" stroke-width="3" stroke-linecap="round" stroke-linejoin="round"/>
<path d="M144.217 39.4348C151.517 39.4348 157.435 33.5172 157.435 26.2174C157.435 18.9176 151.517 13 144.217 13C136.918 13 131 18.9176 131 26.2174C131 33.5172 136.918 39.4348 144.217 39.4348Z" stroke="black" stroke-width="3" stroke-linecap="round" stroke-linejoin="round"/>
</g>
<defs>
<clipPath id="clip0_263_2012">
<rect width="390" height="78" fill="white"/>
</clipPath>
</defs>
</svg>
