<svg width="30" height="30" viewBox="0 0 30 30" fill="none" xmlns="http://www.w3.org/2000/svg">
<path fill-rule="evenodd" clip-rule="evenodd" d="M0.153321 2.81493C0.153321 2.16497 0.411515 1.54163 0.871104 1.08204C1.33069 0.622456 1.95403 0.364261 2.60399 0.364261L27.0333 0.364261C27.3554 0.363735 27.6745 0.426745 27.9722 0.549683C28.2699 0.672622 28.5404 0.853074 28.7683 1.08071C28.9962 1.30834 29.177 1.57869 29.3002 1.87627C29.4235 2.17386 29.4868 2.49283 29.4867 2.81493V27.2443C29.487 27.5664 29.4238 27.8855 29.3007 28.1832C29.1777 28.4809 28.9971 28.7515 28.7693 28.9793C28.5416 29.2072 28.2712 29.3879 27.9735 29.5112C27.6759 29.6344 27.3568 29.6978 27.0347 29.6976H2.60399C2.28205 29.6976 1.96327 29.6342 1.66585 29.5109C1.36843 29.3877 1.09822 29.207 0.870633 28.9793C0.64305 28.7516 0.462563 28.4813 0.339484 28.1838C0.216405 27.8864 0.153146 27.5675 0.153321 27.2456L0.153321 2.81493ZM11.764 11.5483H15.736V13.5429C16.3093 12.3963 17.776 11.3643 19.98 11.3643C24.2053 11.3643 25.2067 13.6483 25.2067 17.8389V25.6016H20.9307V18.7936C20.9307 16.4069 20.3573 15.0603 18.9013 15.0603C16.8813 15.0603 16.0413 16.5123 16.0413 18.7936V25.6016H11.764V11.5483ZM4.43065 25.4189H8.70799V11.3643H4.43065V25.4176V25.4189ZM9.31999 6.78026C9.32805 7.14649 9.26289 7.51064 9.12831 7.85135C8.99373 8.19205 8.79246 8.50244 8.5363 8.7643C8.28014 9.02617 7.97425 9.23423 7.6366 9.37627C7.29894 9.51832 6.93631 9.59148 6.56999 9.59148C6.20367 9.59148 5.84104 9.51832 5.50338 9.37627C5.16572 9.23423 4.85984 9.02617 4.60368 8.7643C4.34752 8.50244 4.14625 8.19205 4.01167 7.85135C3.87709 7.51064 3.81192 7.14649 3.81999 6.78026C3.83582 6.0614 4.1325 5.37732 4.6465 4.87451C5.1605 4.3717 5.85095 4.09015 6.56999 4.09015C7.28902 4.09015 7.97947 4.3717 8.49347 4.87451C9.00748 5.37732 9.30416 6.0614 9.31999 6.78026Z" fill="white"/>
</svg>
